<svg xmlns="http://www.w3.org/2000/svg" viewBox="-65 -18 562 107"><path d="M0 69.832V2.371h9.785v59.227H36.98v8.234zm53.941 0V29.047h-12.43v-7.52h21.688v48.305zm3.907-56.34c-3.918 0-6.906-2.984-6.906-6.797C50.941 2.984 53.93 0 57.848 0c3.91 0 7.004 2.984 7.004 6.695 0 3.813-3.094 6.797-7.004 6.797zm52.832 56.34V35.949c0-4.633-2.262-7.313-6.281-7.313-3.602 0-9.477 4.016-11.848 9.777v31.418H83.18V21.527h8.238l.207 7.625h.207s.719-1.445 1.547-2.477c3.402-4.117 7.516-6.18 12.461-6.18 8.754 0 14.215 5.668 14.215 14.73V69.83h-9.375zm54.968 0l-17.402-20.184c-.418-.516-1.234-1.648-1.234-1.648h-.207v21.832h-9.172V1.031h9.172v39.758l.207.102s.926-1.344 1.441-1.953l15.465-17.41h10.281L154.008 43.57l23.176 26.262zm25.157 0V8.555h-12.457V1.031h21.73v68.801zm52.121 0l-.516-3.297c-.105-.926-.305-2.574-.305-2.574H242c-2.371 4.426-6.797 6.902-12.668 6.902-3.605 0-6.902-1.031-8.863-2.477-4.117-2.875-5.871-7.203-5.871-12.148 0-9.789 7.109-16.066 16.688-16.066 2.984 0 6.902.617 9.574 1.129l.41.098v-6.48c0-5.152-4.418-6.594-8.641-6.594-4.016 0-8.961 1.137-12.984 3.711l-.313-7.621c4.336-2.781 9.789-3.918 15.453-3.918 9.684 0 15.668 6.285 15.668 15.965v33.371h-7.527zm-1.656-21.418c-1.852-.52-5.246-1.137-7.918-1.137-5.773 0-10.102 2.164-10.102 8.648 0 4.535 2.68 7.313 7.109 7.313 5.156 0 7.934-2.984 10.82-6.902l.09-.199v-7.723zm41.433-19.367v40.785h-9.379V29.047h-12.051v-7.52h12.051V7.52h9.379v14.008h13.387v7.52h-13.387zm59.395 18.336h-29.043V48c0 9.477 4.016 14.938 13.699 14.938 5.352 0 9.887-1.648 13.805-3.402v7.625c-4.438 1.953-8.969 3.602-15.043 3.602-15.863 0-21.832-10.406-21.832-24.82 0-11.742 5.352-25.34 20.387-25.34 16.176 0 18.129 15.551 18.129 20.602-.001 1.947-.102 4.834-.102 6.178zm-18.543-19.469c-5.246 0-9.789 4.43-10.395 12.664h19.977v-.816c0-7.215-3.809-11.848-9.582-11.848zm67.027 9.168h-8.441v-1.027c.105-5.254-1.961-7.828-5.668-7.828-3.492 0-7.723 4.738-9.984 10.398v31.207h-9.172V21.527h7.723l.211 7.109h.207s1.031-1.445 1.441-2.164c3.199-4.633 6.797-6.078 10.91-6.078 7.73 0 12.988 5.559 12.988 13.281 0 1.141-.109 2.274-.215 3.407zm24.047 33.68c-5.656 0-10.914-1.438-15.445-4.949l.203-8.238c4.535 3.297 8.855 5.461 15.242 5.461 4.738 0 8.441-1.852 8.441-6.594 0-3.914-2.574-5.664-8.949-7.93l-1.551-.617c-5.969-2.168-12.559-5.664-12.559-14.004 0-8.656 7.516-13.395 15.445-13.395 4.633 0 9.164 1.031 13.59 3.918l-.203 7.93c-4.223-2.477-8.543-4.227-13.496-4.227-3.5 0-6.688 1.133-6.688 5.258 0 3.91 3.297 5.563 7.723 7.203l1.551.625c6.484 2.473 13.797 5.559 13.797 15.551 0 9.781-8.347 14.008-17.101 14.008z" fill="#C60076"/></svg>