<svg width="128" height="40" viewBox="0 0 128 40" fill="none" xmlns="http://www.w3.org/2000/svg">
<g clip-path="url(#clip0_418_4225)">
<path d="M30.8822 12.4102H27.3105V27.5905H30.8822V12.4102Z" fill="#2ECC71"/>
<path d="M0 22.7201V23.8322C0 26.3572 1.45147 27.7106 4.03559 27.7106H7.72318C10.3941 27.7106 11.788 26.4469 11.788 24.0723V21.8784C11.788 20.6158 11.0335 19.6542 9.52351 19.2637L4.2392 17.9405C3.83273 17.8507 3.65814 17.67 3.65814 17.2189V15.9867C3.65814 15.4761 3.97784 15.1148 4.76162 15.1148H7.02604C7.75225 15.1148 8.10024 15.4459 8.10024 16.1371V17.0394H11.5851V16.1675C11.5851 13.6425 10.1619 12.2891 7.57779 12.2891H4.26852C1.62591 12.2891 0.174587 13.5516 0.174587 15.9263V17.8207C0.174587 19.5039 1.24875 20.2851 2.20697 20.5264L7.66575 21.9393C8.1297 22.0595 8.33241 22.2692 8.33241 22.7204V23.9526C8.33241 24.5541 7.98442 24.855 7.25927 24.855H4.55801C3.83288 24.855 3.48385 24.5239 3.48385 23.8629V22.7204L0 22.7201Z" fill="#2ECC71"/>
<path d="M18.6512 21.3678L21.7286 24.5246C22.1644 24.9455 22.3097 25.336 22.3097 25.7568V27.5906H25.7641V25.1251C25.7641 24.2543 25.4455 23.5327 24.5447 22.6608L21.4966 19.6543L23.8196 18.0013C24.3713 17.6108 25.5323 16.8286 25.5323 15.4459V12.4102H22.2805V14.8454C22.2805 15.3258 22.0777 15.5659 21.7006 15.8364L18.4488 18.1819H16.967V12.4102H13.3965V27.5905H16.967V21.3677L18.6512 21.3678Z" fill="#2ECC71"/>
<path d="M32.7539 12.2891V27.4695H42.103V24.4036H36.3246V12.2891H32.7539Z" fill="#2ECC71"/>
<path d="M43.6543 12.2891V27.4695H53.0035V24.4036H47.226V12.2891H43.6543Z" fill="#2ECC71"/>
<path d="M122.601 27.5895V17.7903L124.603 15.9263C124.981 15.5952 125.243 15.4752 125.91 15.4752H128.001V12.2891H125.794C124.72 12.2891 124.197 12.4394 123.646 12.95L122.455 14.0329L122.252 12.409H119.029V27.5894L122.601 27.5895Z" fill="#2ECC71"/>
<path d="M99.2599 15.475C99.9569 15.475 100.305 15.8364 100.305 16.5569V27.5895H103.876V15.9856C103.876 13.5819 102.598 12.2891 100.275 12.2891H98.2721C97.2273 12.2891 96.733 12.5292 96.1239 12.95L95.0204 13.702L94.8462 12.4092H91.623V27.5895H95.1947V17.0989L96.9073 15.9263C97.3144 15.6558 97.5751 15.4752 98.2135 15.4752L99.2599 15.475Z" fill="#2ECC71"/>
<path d="M85.1264 27.5895V17.7903L87.1296 15.9263C87.5075 15.5952 87.7689 15.4752 88.4366 15.4752H90.5263V12.2891H88.321C87.2453 12.2891 86.7225 12.4394 86.1712 12.95L84.9806 14.0329L84.7786 12.409H81.5547V27.5894L85.1264 27.5895Z" fill="#2ECC71"/>
<path d="M109.128 16.347C109.128 15.5962 109.476 15.2349 110.202 15.2349H112.844C113.541 15.2349 113.889 15.5962 113.889 16.347V18.2414H109.128V16.347ZM117.344 21.0369V16.5277C117.344 13.7626 115.922 12.2891 113.338 12.2891H109.65C107.008 12.2891 105.586 13.7626 105.586 16.5277V23.4721C105.586 26.2372 107.008 27.7107 109.65 27.7107H113.338C115.922 27.7107 117.344 26.2676 117.344 23.5922V22.7505H113.86V23.6516C113.86 24.3732 113.511 24.7637 112.786 24.7637H110.202C109.476 24.7637 109.128 24.4034 109.128 23.6516V21.0369H117.344Z" fill="#2ECC71"/>
<path d="M76.2262 23.5012C76.2262 24.1926 75.8782 24.5831 75.152 24.5831H72.2198C71.4936 24.5831 71.1457 24.2228 71.1457 23.5012V16.4975C71.1457 15.7759 71.4937 15.4157 72.2198 15.4157H75.152C75.8783 15.4157 76.2262 15.7759 76.2262 16.4975V23.5012ZM75.7037 12.2891H71.639C68.9974 12.2891 67.5742 13.7614 67.5742 16.5277V23.471C67.5742 26.2361 68.9974 27.7097 71.639 27.7097H75.7037C78.3465 27.7097 79.7977 26.2361 79.7977 23.471V16.5277C79.7977 13.7614 78.3465 12.2891 75.7037 12.2891Z" fill="#2ECC71"/>
<path d="M58.4611 27.7095H62.1194C64.6743 27.7095 66.0975 26.236 66.0975 23.4709V22.1185H62.6126V23.4113C62.6126 24.1318 62.2646 24.5234 61.5385 24.5234H59.0422C58.316 24.5234 57.9668 24.1317 57.9668 23.4113V16.5871C57.9668 15.8364 58.3158 15.475 59.0422 15.475H61.5385C62.2646 15.475 62.6126 15.8364 62.6126 16.5871V17.6689H66.0975V16.5276C66.0977 13.7614 64.6743 12.2891 62.1195 12.2891H58.4613C55.8186 12.2891 54.3965 13.7614 54.3965 16.5277V23.471C54.3965 26.2361 55.8184 27.7095 58.4611 27.7095Z" fill="#2ECC71"/>
</g>
<defs>
<clipPath id="clip0_418_4225">
<rect width="128" height="15.4217" fill="#2ECC71" transform="translate(0 12.2891)"/>
</clipPath>
</defs>
</svg>
