<svg width="76" height="85" viewBox="0 0 76 85" fill="none" xmlns="http://www.w3.org/2000/svg">
<mask id="mask0_1569_1051" style="mask-type:luminance" maskUnits="userSpaceOnUse" x="47" y="0" width="29" height="29">
<path d="M47.543 0H75.438V28.0326H47.543V0Z" fill="white"/>
</mask>
<g mask="url(#mask0_1569_1051)">
<path d="M61.6955 27.6781C54.0914 27.6781 47.9055 21.4921 47.9055 13.888C47.9055 6.2865 54.0914 0.0979004 61.6955 0.0979004C69.2997 0.0979004 75.4856 6.2865 75.4856 13.888C75.4856 21.4921 69.2997 27.6781 61.6955 27.6781ZM61.6955 3.90525C56.1896 3.90525 51.7102 8.382 51.7102 13.888C51.7102 19.394 56.1896 23.8734 61.6955 23.8734C67.2015 23.8734 71.6809 19.394 71.6809 13.888C71.6809 8.38465 67.2015 3.90525 61.6955 3.90525Z" fill="#003747"/>
</g>
<mask id="mask1_1569_1051" style="mask-type:luminance" maskUnits="userSpaceOnUse" x="0" y="49" width="24" height="26">
<path d="M0 49.7073H23.8363V74.0913H0V49.7073Z" fill="white"/>
</mask>
<g mask="url(#mask1_1569_1051)">
<path d="M11.8824 49.8818C18.407 49.8818 23.7172 55.1894 23.7172 61.7166C23.7172 68.2413 18.407 73.5488 11.8824 73.5488C5.3578 73.5488 0.0476074 68.2413 0.0476074 61.7166C0.0476074 55.1894 5.3578 49.8818 11.8824 49.8818ZM11.8824 69.7441C16.3089 69.7441 19.9099 66.1431 19.9099 61.7166C19.9099 57.2902 16.3089 53.6865 11.8824 53.6865C7.45594 53.6865 3.85232 57.2902 3.85232 61.7166C3.85232 66.1431 7.45594 69.7441 11.8824 69.7441Z" fill="#003747"/>
</g>
<path d="M25.4687 19.6426C21.9498 19.6426 19.0844 16.7772 19.0844 13.2582C19.0844 9.73926 21.9498 6.87646 25.4687 6.87646C28.9851 6.87646 31.8505 9.73926 31.8505 13.2582C31.8505 16.7772 28.9877 19.6426 25.4687 19.6426ZM25.4687 10.6812C24.0453 10.6812 22.8917 11.8374 22.8917 13.2582C22.8917 14.6817 24.0453 15.8353 25.4687 15.8353C26.8896 15.8353 28.0458 14.6817 28.0458 13.2582C28.0458 11.8374 26.8896 10.6812 25.4687 10.6812Z" fill="#F4A57B"/>
<path d="M58.7957 47.3048C58.7957 43.7859 61.6585 40.9231 65.1775 40.9231C68.6964 40.9231 71.5592 43.7859 71.5592 47.3048C71.5592 50.8238 68.6964 53.6866 65.1775 53.6866C61.6585 53.6866 58.7957 50.8238 58.7957 47.3048ZM67.7545 47.3048C67.7545 45.884 66.5983 44.7278 65.1775 44.7278C63.7567 44.7278 62.6004 45.884 62.6004 47.3048C62.6004 48.7257 63.7567 49.8819 65.1775 49.8819C66.5983 49.8819 67.7545 48.7257 67.7545 47.3048Z" fill="#F4A57B"/>
<mask id="mask2_1569_1051" style="mask-type:luminance" maskUnits="userSpaceOnUse" x="54" y="71" width="15" height="14">
<path d="M54.9937 71.382H68.5403V84.836H54.9937V71.382Z" fill="white"/>
</mask>
<g mask="url(#mask2_1569_1051)">
<path d="M61.6955 71.8926C65.2145 71.8926 68.0773 74.7554 68.0773 78.2743C68.0773 81.7933 65.2145 84.6561 61.6955 84.6561C58.1766 84.6561 55.3138 81.7933 55.3138 78.2743C55.3138 74.7554 58.1766 71.8926 61.6955 71.8926ZM61.6955 80.8514C63.1163 80.8514 64.2726 79.6951 64.2726 78.2743C64.2726 76.8535 63.1163 75.6973 61.6955 75.6973C60.2747 75.6973 59.1185 76.8535 59.1185 78.2743C59.1185 79.6951 60.2747 80.8514 61.6955 80.8514Z" fill="#F4A57B"/>
</g>
<path d="M21.9128 52.9986C21.2434 52.189 21.3572 50.9904 22.1668 50.321L27.9427 45.5347C27.3817 44.3891 27.0563 43.1085 27.0563 41.7512C27.0563 38.6714 28.6861 35.9727 31.1203 34.446L27.1569 22.7171C26.8208 21.7222 27.3553 20.6401 28.3528 20.3041C29.3476 19.968 30.4271 20.5025 30.7631 21.4973L34.7107 33.1866C35.0282 33.1496 35.351 33.1284 35.6791 33.1284C37.3036 33.1284 38.817 33.5888 40.1161 34.372L47.3631 25.4793C48.0298 24.667 49.2257 24.5427 50.0407 25.2068C50.8556 25.8709 50.9773 27.0695 50.3132 27.8844L42.8757 37.0125C43.6986 38.2587 44.1987 39.7298 44.2807 41.312L56.1869 43.9393C57.2135 44.1668 57.8617 45.1828 57.6342 46.2068C57.4384 47.0958 56.6526 47.699 55.7795 47.699C55.6419 47.699 55.5043 47.6858 55.3667 47.654L43.6351 45.0664C43.1112 46.3205 42.299 47.4186 41.283 48.2917L57.2929 69.3975C57.9279 70.2362 57.7638 71.4295 56.9251 72.0645C56.5838 72.3238 56.179 72.4508 55.7768 72.4508C55.2027 72.4508 54.6338 72.1915 54.2608 71.6994L37.8645 50.0829C37.166 50.2655 36.4358 50.374 35.6791 50.374C33.6577 50.374 31.8003 49.6702 30.3292 48.5007L24.5904 53.25C24.2359 53.5463 23.8072 53.6892 23.3786 53.6892C22.8336 53.6865 22.2885 53.4537 21.9128 52.9986ZM35.6791 46.5666C38.3355 46.5666 40.4945 44.4076 40.4945 41.7512C40.4945 39.0948 38.3355 36.9331 35.6791 36.9331C33.0227 36.9331 30.8637 39.0948 30.8637 41.7512C30.8637 44.4076 33.0227 46.5666 35.6791 46.5666Z" fill="#003747"/>
</svg>
